<svg width="179" height="56" viewBox="0 0 179 56" fill="none" xmlns="http://www.w3.org/2000/svg">
<path d="M77.3677 17.1349C77.3677 17.0119 77.3927 16.8951 77.4406 16.7867C77.4885 16.6783 77.5531 16.5845 77.6344 16.5053C77.7157 16.426 77.8115 16.3614 77.9199 16.3135C78.0282 16.2655 78.1428 16.2405 78.2679 16.2405C78.3929 16.2405 78.5075 16.2655 78.6159 16.3135C78.7242 16.3614 78.818 16.426 78.8972 16.5053C78.9764 16.5845 79.041 16.6783 79.0889 16.7867C79.1368 16.8951 79.1598 17.0098 79.1598 17.1349C79.1598 17.26 79.1347 17.3746 79.0889 17.483C79.041 17.5914 78.9764 17.6853 78.8972 17.7686C78.818 17.85 78.7242 17.9146 78.6159 17.9625C78.5075 18.0105 78.3929 18.0334 78.2679 18.0334C78.1428 18.0334 78.0282 18.0084 77.9199 17.9625C77.8115 17.9146 77.7177 17.85 77.6344 17.7686C77.5531 17.6873 77.4885 17.5914 77.4406 17.483C77.3927 17.3746 77.3677 17.26 77.3677 17.1349ZM75.3047 17.1349C75.3047 17.0119 75.3297 16.8951 75.3755 16.7867C75.4235 16.6783 75.4881 16.5845 75.5714 16.5053C75.6527 16.426 75.7485 16.3614 75.8569 16.3135C75.9653 16.2655 76.0799 16.2405 76.2049 16.2405C76.3299 16.2405 76.4445 16.2655 76.5529 16.3135C76.6613 16.3614 76.755 16.426 76.8342 16.5053C76.9134 16.5845 76.978 16.6783 77.0259 16.7867C77.0738 16.8951 77.0968 17.0098 77.0968 17.1349C77.0968 17.26 77.0718 17.3746 77.0259 17.483C76.978 17.5914 76.9134 17.6853 76.8342 17.7686C76.755 17.85 76.6613 17.9146 76.5529 17.9625C76.4445 18.0105 76.3299 18.0334 76.2049 18.0334C76.0799 18.0334 75.9653 18.0084 75.8569 17.9625C75.7485 17.9146 75.6548 17.85 75.5714 17.7686C75.4901 17.6873 75.4256 17.5914 75.3755 17.483C75.3276 17.3746 75.3047 17.26 75.3047 17.1349ZM81.4978 12.3669C81.5186 12.442 81.5332 12.5274 81.5436 12.6192C81.5541 12.7109 81.5582 12.8193 81.5582 12.9423C81.5582 13.2905 81.4936 13.6115 81.3623 13.9055C81.2331 14.1995 81.0039 14.4517 80.6768 14.6644C80.3496 14.877 79.9078 15.0417 79.3515 15.1626C78.7951 15.2836 78.0928 15.3419 77.2406 15.3419C76.6925 15.3419 76.2091 15.3065 75.7902 15.2335C75.3714 15.1626 75.0067 15.0605 74.6962 14.9271C74.3857 14.7957 74.1273 14.6352 73.9169 14.4496C73.7064 14.2641 73.5397 14.0577 73.4126 13.8325C73.2876 13.6074 73.1959 13.3635 73.1438 13.1008C73.0896 12.8381 73.0625 12.5671 73.0625 12.2814V10.1758H74.7171V12.2272C74.7171 12.5024 74.7608 12.7443 74.8462 12.9507C74.9317 13.1571 75.0755 13.3301 75.2755 13.4698C75.4756 13.6095 75.7381 13.7137 76.0611 13.7846C76.3841 13.8555 76.7842 13.8888 77.2593 13.8888C77.6552 13.8888 77.997 13.8701 78.2866 13.8346C78.5763 13.7992 78.8222 13.7512 79.0243 13.6908C79.2264 13.6303 79.3911 13.5636 79.5182 13.4865C79.6474 13.4114 79.7453 13.3343 79.8141 13.255C79.8849 13.1779 79.9328 13.1008 79.9579 13.0278C79.9829 12.9548 79.9974 12.8881 79.9974 12.8339C79.9974 12.7213 79.9412 12.6213 79.8266 12.5316C79.712 12.442 79.5515 12.3565 79.3431 12.2731C79.1347 12.1918 78.8826 12.1105 78.5888 12.0292C78.295 11.9479 77.9657 11.8645 77.6052 11.7769V10.2654C77.8845 10.353 78.1595 10.4364 78.4262 10.5135C78.6951 10.5907 78.9535 10.6615 79.2035 10.7199C79.4536 10.7804 79.6911 10.8262 79.9203 10.8617C80.1475 10.895 80.3621 10.9117 80.5622 10.9117H82.15C82.2146 10.9117 82.2751 10.918 82.3334 10.9305C82.3918 10.943 82.4438 10.9722 82.4897 11.018C82.5355 11.0639 82.571 11.1327 82.5981 11.2244C82.6231 11.3162 82.6376 11.4433 82.6376 11.6018C82.6376 11.8895 82.598 12.0875 82.5209 12.198C82.4438 12.3085 82.3209 12.3627 82.1521 12.3627H81.4978V12.3669Z" fill="white"/>
<path d="M82.1558 12.3672C82.0871 12.3672 82.0246 12.3609 81.9641 12.3484C81.9037 12.3359 81.8516 12.3067 81.8078 12.2608C81.7641 12.215 81.7287 12.1441 81.7036 12.0503C81.6766 11.9565 81.6641 11.8272 81.6641 11.6625C81.6641 11.3748 81.7037 11.1767 81.7808 11.0725C81.8579 10.9662 81.9829 10.9141 82.1558 10.9141H84.0209C84.0896 10.9141 84.1521 10.9203 84.2126 10.9328C84.273 10.9453 84.3251 10.9745 84.3709 11.0204C84.4168 11.0663 84.4543 11.1351 84.4814 11.2268C84.5085 11.3185 84.5231 11.4457 84.5231 11.6041C84.5231 11.8918 84.4835 12.0899 84.4022 12.2004C84.323 12.3109 84.1938 12.3651 84.0188 12.3651H82.1538L82.1558 12.3672Z" fill="white"/>
<path d="M84.023 12.3672C83.9543 12.3672 83.8918 12.3609 83.8313 12.3484C83.7709 12.3359 83.7188 12.3067 83.675 12.2608C83.6313 12.215 83.5958 12.1441 83.5708 12.0503C83.5458 11.9565 83.5312 11.8272 83.5312 11.6625C83.5312 11.3748 83.5708 11.1767 83.6479 11.0725C83.7251 10.9662 83.8501 10.9141 84.023 10.9141H85.8881C85.9568 10.9141 86.0193 10.9203 86.0798 10.9328C86.1402 10.9453 86.1923 10.9745 86.2381 11.0204C86.284 11.0663 86.3215 11.1351 86.3486 11.2268C86.3757 11.3185 86.3902 11.4457 86.3902 11.6041C86.3902 11.8918 86.3507 12.0899 86.2694 12.2004C86.1902 12.3109 86.061 12.3651 85.886 12.3651H84.0209L84.023 12.3672Z" fill="white"/>
<path d="M85.8824 12.3672C85.8136 12.3672 85.7511 12.3609 85.6907 12.3484C85.6303 12.3359 85.5782 12.3067 85.5344 12.2608C85.4906 12.215 85.4552 12.1441 85.4302 12.0503C85.4031 11.9565 85.3906 11.8272 85.3906 11.6625C85.3906 11.3748 85.4302 11.1767 85.5073 11.0725C85.5844 10.9662 85.7095 10.9141 85.8824 10.9141H87.7474C87.8162 10.9141 87.8787 10.9203 87.9391 10.9328C87.9996 10.9453 88.0517 10.9745 88.0975 11.0204C88.1433 11.0663 88.1809 11.1351 88.2079 11.2268C88.235 11.3185 88.2496 11.4457 88.2496 11.6041C88.2496 11.8918 88.21 12.0899 88.1288 12.2004C88.0496 12.3109 87.9204 12.3651 87.7453 12.3651H85.8803L85.8824 12.3672Z" fill="white"/>
<path d="M87.7418 12.3672C87.673 12.3672 87.6105 12.3609 87.5501 12.3484C87.4896 12.3359 87.4375 12.3067 87.3938 12.2608C87.35 12.215 87.3146 12.1441 87.2896 12.0503C87.2625 11.9565 87.25 11.8272 87.25 11.6625C87.25 11.3748 87.2896 11.1767 87.3667 11.0725C87.4438 10.9662 87.5688 10.9141 87.7418 10.9141H89.6068C89.6756 10.9141 89.7381 10.9203 89.7985 10.9328C89.8589 10.9453 89.911 10.9745 89.9569 11.0204C90.0027 11.0663 90.0402 11.1351 90.0673 11.2268C90.0944 11.3185 90.109 11.4457 90.109 11.6041C90.109 11.8918 90.0694 12.0899 89.9881 12.2004C89.9089 12.3109 89.7798 12.3651 89.6047 12.3651H87.7397L87.7418 12.3672Z" fill="white"/>
<path d="M89.609 12.3672C89.5402 12.3672 89.4777 12.3609 89.4173 12.3484C89.3568 12.3359 89.3047 12.3067 89.261 12.2608C89.2172 12.215 89.1818 12.1441 89.1568 12.0503C89.1318 11.9565 89.1172 11.8272 89.1172 11.6625C89.1172 11.3748 89.1568 11.1767 89.2339 11.0725C89.311 10.9662 89.436 10.9141 89.609 10.9141H91.474C91.5428 10.9141 91.6053 10.9203 91.6657 10.9328C91.7261 10.9453 91.7782 10.9745 91.8241 11.0204C91.8699 11.0663 91.9074 11.1351 91.9345 11.2268C91.9616 11.3185 91.9762 11.4457 91.9762 11.6041C91.9762 11.8918 91.9366 12.0899 91.8553 12.2004C91.7761 12.3109 91.6469 12.3651 91.4719 12.3651H89.6069L89.609 12.3672Z" fill="white"/>
<path d="M91.4762 12.3672C91.4074 12.3672 91.3449 12.3609 91.2844 12.3484C91.224 12.3359 91.1719 12.3067 91.1282 12.2608C91.0844 12.215 91.049 12.1441 91.024 12.0503C90.9969 11.9565 90.9844 11.8272 90.9844 11.6625C90.9844 11.3748 91.024 11.1767 91.1011 11.0725C91.1782 10.9662 91.3032 10.9141 91.4762 10.9141H93.3412C93.4099 10.9141 93.4725 10.9203 93.5329 10.9328C93.5933 10.9453 93.6454 10.9745 93.6913 11.0204C93.7371 11.0663 93.7746 11.1351 93.8017 11.2268C93.8288 11.3185 93.8434 11.4457 93.8434 11.6041C93.8434 11.8918 93.8038 12.0899 93.7225 12.2004C93.6433 12.3109 93.5141 12.3651 93.3391 12.3651H91.4741L91.4762 12.3672Z" fill="white"/>
<path d="M94.7984 14.4539C94.7984 14.3309 94.8213 14.2141 94.8671 14.1057C94.913 13.9973 94.9776 13.9035 95.0588 13.8242C95.1401 13.745 95.236 13.6804 95.3443 13.6324C95.4527 13.5845 95.5673 13.5595 95.6923 13.5595C95.8174 13.5595 95.932 13.5845 96.0403 13.6324C96.1487 13.6804 96.2425 13.745 96.3258 13.8242C96.4071 13.9035 96.4738 13.9973 96.5196 14.1057C96.5675 14.2141 96.5925 14.3288 96.5925 14.4539C96.5925 14.579 96.5675 14.6936 96.5196 14.802C96.4717 14.9104 96.4071 15.0043 96.3258 15.0876C96.2445 15.169 96.1487 15.2336 96.0403 15.2815C95.932 15.3295 95.8174 15.3524 95.6923 15.3524C95.5673 15.3524 95.4527 15.3295 95.3443 15.2815C95.236 15.2336 95.1422 15.169 95.0588 15.0876C94.9776 15.0063 94.913 14.9104 94.8671 14.802C94.8213 14.6936 94.7984 14.579 94.7984 14.4539ZM94.0982 10.9159C94.242 10.9159 94.3629 10.9076 94.4608 10.8888C94.5587 10.8701 94.6379 10.8367 94.7004 10.7846C94.7629 10.7325 94.8067 10.6574 94.8317 10.5594C94.8567 10.4615 94.8713 10.3343 94.8713 10.1779V7.33008H96.5259V10.0341C96.5259 10.1946 96.5425 10.3301 96.5738 10.4427C96.605 10.5553 96.6613 10.6449 96.7384 10.7158C96.8155 10.7867 96.9239 10.8367 97.0593 10.868C97.1948 10.8993 97.3656 10.9159 97.5678 10.9159C97.6324 10.9159 97.6928 10.9222 97.7532 10.9347C97.8137 10.9472 97.8658 10.9764 97.9095 11.0223C97.9533 11.0681 97.9887 11.1369 98.0179 11.2287C98.045 11.3204 98.0595 11.4476 98.0595 11.606C98.0595 11.8937 98.02 12.0918 97.9387 12.2023C97.8595 12.3128 97.7345 12.367 97.5678 12.367C97.4448 12.367 97.3198 12.3586 97.1968 12.342C97.0739 12.3253 96.953 12.294 96.8363 12.2481C96.7197 12.2023 96.6092 12.1356 96.5008 12.0501C96.3925 11.9646 96.2946 11.852 96.207 11.7103C96.0987 11.8624 95.9757 11.9813 95.8361 12.0668C95.6965 12.1522 95.5465 12.2169 95.386 12.2627C95.2256 12.3065 95.0588 12.3336 94.8859 12.3461C94.7129 12.3586 94.54 12.3649 94.367 12.3649H93.3355C93.2668 12.3649 93.2043 12.3586 93.1438 12.3461C93.0834 12.3336 93.0313 12.3044 92.9875 12.2586C92.9438 12.2127 92.9083 12.1418 92.8833 12.048C92.8583 11.9542 92.8438 11.8249 92.8438 11.6602C92.8438 11.3725 92.8833 11.1745 92.9604 11.0702C93.0375 10.9639 93.1626 10.9118 93.3355 10.9118H94.0961L94.0982 10.9159Z" fill="white"/>
<path d="M97.5699 12.3672C97.5011 12.3672 97.4386 12.3609 97.3782 12.3484C97.3178 12.3359 97.2657 12.3067 97.2219 12.2608C97.1781 12.215 97.1427 12.1441 97.1177 12.0503C97.0927 11.9565 97.0781 11.8272 97.0781 11.6625C97.0781 11.3748 97.1177 11.1767 97.1948 11.0725C97.2719 10.9662 97.397 10.9141 97.5699 10.9141H99.4349C99.5037 10.9141 99.5662 10.9203 99.6266 10.9328C99.6871 10.9453 99.7392 10.9745 99.785 11.0204C99.8308 11.0663 99.8684 11.1351 99.8955 11.2268C99.9225 11.3185 99.9371 11.4457 99.9371 11.6041C99.9371 11.8918 99.8975 12.0899 99.8163 12.2004C99.7371 12.3109 99.6079 12.3651 99.4328 12.3651H97.5678L97.5699 12.3672Z" fill="white"/>
<path d="M104.167 5.14458C104.167 5.02158 104.192 4.90483 104.238 4.79642C104.286 4.68801 104.351 4.59419 104.434 4.5108C104.515 4.42949 104.611 4.36278 104.72 4.31691C104.828 4.26896 104.943 4.24395 105.068 4.24395C105.193 4.24395 105.307 4.26896 105.416 4.31691C105.524 4.36487 105.618 4.42949 105.697 4.5108C105.776 4.59211 105.841 4.68801 105.889 4.79642C105.937 4.90483 105.959 5.01949 105.959 5.14458C105.959 5.26967 105.934 5.38434 105.889 5.49275C105.841 5.60116 105.776 5.69497 105.697 5.77836C105.618 5.85967 105.524 5.9243 105.416 5.97017C105.307 6.01603 105.193 6.03897 105.068 6.03897C104.943 6.03897 104.828 6.01603 104.72 5.97017C104.611 5.9243 104.517 5.85967 104.434 5.77836C104.353 5.69706 104.286 5.60116 104.238 5.49275C104.19 5.38434 104.167 5.26967 104.167 5.14458ZM105.097 8.52823C104.83 8.52823 104.572 8.59077 104.326 8.71794C104.08 8.84303 103.849 9.01398 103.63 9.2308C103.411 9.44762 103.211 9.69989 103.028 9.98967C102.844 10.2795 102.677 10.588 102.529 10.9153H106.347V10.3149C106.347 10.1023 106.328 9.89169 106.293 9.67904C106.257 9.46639 106.193 9.27459 106.099 9.10363C106.005 8.93268 105.878 8.793 105.716 8.68667C105.553 8.58034 105.347 8.52823 105.095 8.52823M105.241 7.04593C105.68 7.04593 106.07 7.11681 106.412 7.26275C106.753 7.40868 107.043 7.61091 107.278 7.87777C107.514 8.14462 107.695 8.46568 107.818 8.84095C107.941 9.21621 108.004 9.63943 108.004 10.1064V12.3664H99.4371C99.3683 12.3664 99.3058 12.3601 99.2454 12.3476C99.185 12.3351 99.1329 12.3059 99.0891 12.26C99.0453 12.2142 99.0099 12.1433 98.9849 12.0495C98.9599 11.9556 98.9453 11.8264 98.9453 11.6617C98.9453 11.374 98.9849 11.1759 99.062 11.0717C99.1391 10.9654 99.2641 10.9132 99.4371 10.9132H100.917V3.59766H102.571V8.60536C102.736 8.3531 102.919 8.13003 103.123 7.93614C103.328 7.74225 103.542 7.57964 103.771 7.44829C103.999 7.31695 104.238 7.21688 104.488 7.14808C104.738 7.07928 104.988 7.04593 105.241 7.04593Z" fill="white"/>
<path d="M110.954 9.8112C110.954 10.1948 111.039 10.4742 111.208 10.6514C111.379 10.8265 111.606 10.9161 111.893 10.9161H112.733V9.93212C112.733 9.72781 112.718 9.54017 112.687 9.36505C112.658 9.19201 112.608 9.0419 112.541 8.9189C112.473 8.7959 112.381 8.69791 112.266 8.62911C112.152 8.56031 112.006 8.52487 111.835 8.52487C111.679 8.52487 111.545 8.55614 111.433 8.61869C111.32 8.68123 111.231 8.76879 111.16 8.88346C111.089 8.99812 111.039 9.13364 111.004 9.29208C110.97 9.45053 110.954 9.62565 110.954 9.81745M114.323 12.3672C114.263 12.8237 114.163 13.2345 114.021 13.6035C113.879 13.9704 113.66 14.2831 113.367 14.5416C113.073 14.8001 112.683 14.9982 112.195 15.1358C111.708 15.2734 111.089 15.3422 110.337 15.3422H109.947V13.8057H110.241C110.745 13.8057 111.149 13.7619 111.458 13.6743C111.766 13.5868 112.006 13.4742 112.177 13.3345C112.348 13.1969 112.466 13.0426 112.533 12.8738C112.6 12.7028 112.643 12.534 112.668 12.3672H111.883C111.508 12.3672 111.164 12.3213 110.851 12.2296C110.539 12.1378 110.27 11.9898 110.045 11.7855C109.82 11.5812 109.643 11.3164 109.518 10.987C109.393 10.6597 109.328 10.2594 109.328 9.78826C109.328 9.44427 109.384 9.10862 109.499 8.77713C109.614 8.44773 109.778 8.15378 109.997 7.89943C110.216 7.643 110.483 7.43869 110.803 7.28233C111.122 7.12597 111.491 7.04883 111.906 7.04883C112.368 7.04883 112.76 7.12805 113.077 7.28858C113.396 7.44911 113.652 7.67219 113.848 7.96406C114.044 8.25385 114.186 8.59992 114.271 9.00229C114.356 9.40466 114.4 9.84664 114.4 10.3303V10.9182H115.204C115.273 10.9182 115.336 10.9245 115.396 10.937C115.457 10.9495 115.509 10.9787 115.552 11.0246C115.596 11.0704 115.632 11.1392 115.657 11.231C115.682 11.3227 115.696 11.4499 115.696 11.6083C115.696 11.896 115.657 12.0941 115.58 12.2046C115.502 12.3151 115.377 12.3693 115.204 12.3693H114.323V12.3672Z" fill="white"/>
<path d="M116.455 14.4539C116.455 14.3309 116.478 14.2141 116.524 14.1057C116.57 13.9973 116.634 13.9035 116.716 13.8242C116.797 13.745 116.893 13.6804 117.001 13.6324C117.109 13.5845 117.224 13.5595 117.349 13.5595C117.474 13.5595 117.589 13.5845 117.697 13.6324C117.805 13.6804 117.899 13.745 117.983 13.8242C118.064 13.9035 118.128 13.9973 118.176 14.1057C118.224 14.2141 118.249 14.3288 118.249 14.4539C118.249 14.579 118.224 14.6936 118.176 14.802C118.128 14.9104 118.064 15.0043 117.983 15.0876C117.901 15.169 117.805 15.2336 117.697 15.2815C117.589 15.3295 117.474 15.3524 117.349 15.3524C117.224 15.3524 117.109 15.3295 117.001 15.2815C116.893 15.2336 116.799 15.169 116.716 15.0876C116.634 15.0063 116.57 14.9104 116.524 14.802C116.478 14.6936 116.455 14.579 116.455 14.4539ZM116.653 10.9159V7.33008H118.308V12.367H115.203C115.134 12.367 115.071 12.3607 115.011 12.3482C114.951 12.3357 114.898 12.3065 114.855 12.2606C114.811 12.2148 114.776 12.1439 114.751 12.0501C114.726 11.9563 114.711 11.827 114.711 11.6623C114.711 11.3746 114.751 11.1765 114.828 11.0723C114.905 10.966 115.03 10.9139 115.203 10.9139H116.653V10.9159Z" fill="white"/>
<path d="M121.46 12.3671H119.806V3.59838H121.46V12.3671ZM121.808 2.57891H119.352V1.69078H119.856C119.812 1.62198 119.781 1.5365 119.762 1.43226C119.743 1.32802 119.735 1.23838 119.735 1.16332C119.735 0.97152 119.768 0.802651 119.837 0.658799C119.906 0.514947 119.993 0.394029 120.102 0.296043C120.21 0.198057 120.333 0.125088 120.471 0.0750531C120.608 0.0250177 120.748 0 120.887 0C121.027 0 121.15 0.0125088 121.256 0.0354417C121.362 0.0604594 121.46 0.0875619 121.552 0.118834V0.952757C121.329 0.904806 121.173 0.881873 121.085 0.881873C120.917 0.881873 120.8 0.9194 120.731 0.992368C120.662 1.06742 120.629 1.16124 120.629 1.27799C120.629 1.39474 120.664 1.49064 120.737 1.57194C120.808 1.65117 120.946 1.69286 121.146 1.69286H121.81V2.58099L121.808 2.57891Z" fill="white"/>
<path d="M127.239 5.14478C127.239 5.02177 127.264 4.90502 127.31 4.79661C127.358 4.6882 127.422 4.59439 127.504 4.511C127.585 4.42969 127.681 4.36297 127.789 4.31711C127.897 4.26916 128.012 4.24414 128.137 4.24414C128.262 4.24414 128.377 4.26916 128.485 4.31711C128.593 4.36506 128.687 4.42969 128.766 4.511C128.846 4.5923 128.91 4.6882 128.958 4.79661C129.006 4.90502 129.031 5.01969 129.031 5.14478C129.031 5.26987 129.006 5.38453 128.958 5.49294C128.91 5.60135 128.846 5.69517 128.766 5.77856C128.687 5.85987 128.593 5.92449 128.485 5.97036C128.377 6.01623 128.262 6.03916 128.137 6.03916C128.012 6.03916 127.897 6.01623 127.789 5.97036C127.681 5.92449 127.587 5.85987 127.504 5.77856C127.422 5.69725 127.358 5.60135 127.31 5.49294C127.262 5.38453 127.239 5.26987 127.239 5.14478ZM127.306 7.32757H128.96V10.0316C128.96 10.1963 128.987 10.3339 129.041 10.4485C129.096 10.5632 129.166 10.6528 129.254 10.7216C129.341 10.7904 129.441 10.8384 129.554 10.8697C129.667 10.8988 129.777 10.9155 129.889 10.9155H130.004C130.065 10.9155 130.121 10.9239 130.171 10.9426C130.223 10.9614 130.269 10.9947 130.308 11.0469C130.348 11.099 130.381 11.1699 130.404 11.2574C130.427 11.345 130.44 11.4617 130.44 11.6056C130.44 11.8704 130.402 12.0622 130.329 12.1852C130.256 12.3082 130.146 12.3686 130.002 12.3686H129.887C129.835 12.3686 129.771 12.3645 129.696 12.3561C129.621 12.3478 129.539 12.3311 129.452 12.3061C129.366 12.2811 129.281 12.2415 129.193 12.1893C129.108 12.1372 129.029 12.0684 128.956 11.9788C128.956 13.1025 128.735 13.9427 128.291 14.5035C127.847 15.0643 127.145 15.3436 126.187 15.3436H125.797V13.8092H125.995C126.218 13.8092 126.412 13.7926 126.576 13.7613C126.741 13.73 126.876 13.6612 126.985 13.557C127.093 13.4527 127.172 13.3005 127.224 13.1004C127.276 12.9003 127.301 12.6355 127.301 12.3019V7.32965L127.306 7.32757Z" fill="white"/>
<path d="M130 12.3672C129.931 12.3672 129.868 12.3609 129.808 12.3484C129.747 12.3359 129.695 12.3067 129.652 12.2608C129.608 12.215 129.572 12.1441 129.547 12.0503C129.522 11.9565 129.508 11.8272 129.508 11.6625C129.508 11.3748 129.547 11.1767 129.625 11.0725C129.702 10.9662 129.827 10.9141 130 10.9141H131.865C131.933 10.9141 131.996 10.9203 132.056 10.9328C132.117 10.9453 132.169 10.9745 132.215 11.0204C132.261 11.0663 132.298 11.1351 132.325 11.2268C132.352 11.3185 132.367 11.4457 132.367 11.6041C132.367 11.8918 132.327 12.0899 132.246 12.2004C132.167 12.3109 132.038 12.3651 131.863 12.3651H129.998L130 12.3672Z" fill="white"/>
<path d="M131.867 12.3672C131.798 12.3672 131.736 12.3609 131.675 12.3484C131.615 12.3359 131.563 12.3067 131.519 12.2608C131.475 12.215 131.44 12.1441 131.415 12.0503C131.388 11.9565 131.375 11.8272 131.375 11.6625C131.375 11.3748 131.415 11.1767 131.492 11.0725C131.569 10.9662 131.694 10.9141 131.867 10.9141H133.732C133.801 10.9141 133.863 10.9203 133.924 10.9328C133.984 10.9453 134.036 10.9745 134.082 11.0204C134.128 11.0663 134.165 11.1351 134.192 11.2268C134.219 11.3185 134.234 11.4457 134.234 11.6041C134.234 11.8918 134.194 12.0899 134.113 12.2004C134.034 12.3109 133.905 12.3651 133.73 12.3651H131.865L131.867 12.3672Z" fill="white"/>
<path d="M133.726 12.3672C133.657 12.3672 133.595 12.3609 133.534 12.3484C133.474 12.3359 133.422 12.3067 133.378 12.2608C133.334 12.215 133.299 12.1441 133.274 12.0503C133.249 11.9565 133.234 11.8272 133.234 11.6625C133.234 11.3748 133.274 11.1767 133.351 11.0725C133.428 10.9662 133.553 10.9141 133.726 10.9141H135.591C135.66 10.9141 135.722 10.9203 135.783 10.9328C135.843 10.9453 135.895 10.9745 135.941 11.0204C135.987 11.0663 136.025 11.1351 136.052 11.2268C136.079 11.3185 136.093 11.4457 136.093 11.6041C136.093 11.8918 136.054 12.0899 135.973 12.2004C135.893 12.3109 135.764 12.3651 135.589 12.3651H133.724L133.726 12.3672Z" fill="white"/>
<path d="M135.593 12.3672C135.525 12.3672 135.462 12.3609 135.402 12.3484C135.341 12.3359 135.289 12.3067 135.245 12.2608C135.202 12.215 135.166 12.1441 135.141 12.0503C135.116 11.9565 135.102 11.8272 135.102 11.6625C135.102 11.3748 135.141 11.1767 135.218 11.0725C135.295 10.9662 135.42 10.9141 135.593 10.9141H137.458C137.527 10.9141 137.59 10.9203 137.65 10.9328C137.71 10.9453 137.763 10.9745 137.808 11.0204C137.854 11.0663 137.892 11.1351 137.919 11.2268C137.946 11.3185 137.961 11.4457 137.961 11.6041C137.961 11.8918 137.921 12.0899 137.84 12.2004C137.761 12.3109 137.631 12.3651 137.456 12.3651H135.591L135.593 12.3672Z" fill="white"/>
<path d="M137.461 12.3672C137.392 12.3672 137.329 12.3609 137.269 12.3484C137.208 12.3359 137.156 12.3067 137.113 12.2608C137.069 12.215 137.033 12.1441 137.008 12.0503C136.981 11.9565 136.969 11.8272 136.969 11.6625C136.969 11.3748 137.008 11.1767 137.085 11.0725C137.163 10.9662 137.288 10.9141 137.461 10.9141H139.326C139.394 10.9141 139.457 10.9203 139.517 10.9328C139.578 10.9453 139.63 10.9745 139.676 11.0204C139.721 11.0663 139.759 11.1351 139.786 11.2268C139.813 11.3185 139.828 11.4457 139.828 11.6041C139.828 11.8918 139.788 12.0899 139.707 12.2004C139.628 12.3109 139.499 12.3651 139.323 12.3651H137.458L137.461 12.3672Z" fill="white"/>
<path d="M142.193 10.9154C142.45 10.9154 142.637 10.8695 142.756 10.7778C142.877 10.686 142.935 10.5484 142.935 10.365C142.935 10.2128 142.873 10.0398 142.746 9.84378C142.619 9.64781 142.437 9.4435 142.2 9.23293C141.962 9.02028 141.673 8.80763 141.333 8.59081C140.993 8.37399 140.61 8.16968 140.183 7.97371V6.20996L144.523 3.90625V5.79509L142.06 6.9876V7.02929C142.452 7.27321 142.787 7.50463 143.067 7.72562C143.346 7.94452 143.581 8.15509 143.771 8.35523C143.961 8.55537 144.113 8.74509 144.223 8.92855C144.336 9.10993 144.421 9.28505 144.477 9.45392C144.536 9.62279 144.573 9.78541 144.588 9.94594C144.604 10.1065 144.613 10.2607 144.613 10.4129C144.613 10.513 144.6 10.6298 144.577 10.7632C144.554 10.8966 144.511 11.0363 144.452 11.1801C144.392 11.324 144.309 11.4678 144.202 11.6096C144.096 11.7514 143.961 11.8786 143.794 11.9911C143.627 12.1037 143.429 12.1934 143.198 12.2642C142.967 12.3351 142.692 12.3685 142.377 12.3685H139.32C139.251 12.3685 139.189 12.3622 139.128 12.3497C139.068 12.3372 139.016 12.308 138.972 12.2622C138.928 12.2163 138.893 12.1454 138.868 12.0516C138.843 11.9578 138.828 11.8285 138.828 11.6638C138.828 11.3761 138.868 11.1781 138.945 11.0738C139.022 10.9675 139.147 10.9154 139.32 10.9154H142.191H142.193Z" fill="white"/>
<path d="M146.899 7.32812H148.554V10.0321C148.554 10.1968 148.581 10.3344 148.635 10.4491C148.689 10.5637 148.76 10.6534 148.848 10.7222C148.935 10.791 149.035 10.8389 149.148 10.8702C149.26 10.8994 149.371 10.9161 149.483 10.9161H149.598C149.658 10.9161 149.715 10.9244 149.765 10.9432C149.817 10.9619 149.862 10.9953 149.902 11.0474C149.942 11.0995 149.975 11.1704 149.998 11.258C150.021 11.3455 150.033 11.4623 150.033 11.6061C150.033 11.8709 149.996 12.0627 149.923 12.1857C149.85 12.3087 149.74 12.3692 149.596 12.3692H149.481C149.429 12.3692 149.364 12.365 149.289 12.3567C149.214 12.3483 149.133 12.3317 149.046 12.3066C148.96 12.2816 148.875 12.242 148.787 12.1899C148.702 12.1378 148.623 12.069 148.55 11.9793C148.55 13.103 148.329 13.9432 147.885 14.504C147.441 15.0648 146.739 15.3442 145.78 15.3442H145.391V13.8098H145.589C145.812 13.8098 146.005 13.7931 146.17 13.7618C146.335 13.7306 146.47 13.6618 146.578 13.5575C146.687 13.4533 146.766 13.3011 146.818 13.101C146.87 12.9008 146.895 12.636 146.895 12.3025V7.33021L146.899 7.32812Z" fill="white"/>
<path d="M149.601 12.3672C149.532 12.3672 149.47 12.3609 149.409 12.3484C149.349 12.3359 149.297 12.3067 149.253 12.2608C149.209 12.215 149.174 12.1441 149.149 12.0503C149.122 11.9565 149.109 11.8272 149.109 11.6625C149.109 11.3748 149.149 11.1767 149.226 11.0725C149.303 10.9662 149.428 10.9141 149.601 10.9141H151.466C151.535 10.9141 151.597 10.9203 151.658 10.9328C151.718 10.9453 151.77 10.9745 151.816 11.0204C151.862 11.0663 151.9 11.1351 151.927 11.2268C151.954 11.3185 151.968 11.4457 151.968 11.6041C151.968 11.8918 151.929 12.0899 151.848 12.2004C151.768 12.3109 151.639 12.3651 151.464 12.3651H149.599L149.601 12.3672Z" fill="white"/>
<path d="M156.201 10.009C156.201 9.88596 156.187 9.75879 156.155 9.63162C156.126 9.50444 156.076 9.38769 156.01 9.28345C155.941 9.17921 155.855 9.09582 155.749 9.03119C155.643 8.96656 155.514 8.93529 155.364 8.93529C155.259 8.93529 155.151 8.96865 155.036 9.03328C154.922 9.09999 154.811 9.20215 154.701 9.33974C154.59 9.47734 154.486 9.65247 154.388 9.86095C154.29 10.0715 154.205 10.3196 154.134 10.6073C154.313 10.7241 154.509 10.8179 154.718 10.8929C154.928 10.968 155.141 11.0034 155.355 11.0034C155.622 11.0034 155.83 10.9263 155.978 10.772C156.126 10.6177 156.199 10.3634 156.199 10.0069M151.675 10.9159C151.788 10.9159 151.89 10.9013 151.981 10.8742C152.073 10.8471 152.161 10.797 152.242 10.7241C152.323 10.6511 152.4 10.551 152.473 10.4218C152.544 10.2925 152.619 10.1257 152.694 9.92141C152.886 9.40646 153.096 8.98741 153.323 8.66427C153.551 8.34321 153.788 8.09094 154.032 7.91165C154.276 7.73236 154.522 7.61144 154.77 7.54889C155.018 7.48635 155.257 7.45508 155.489 7.45508C155.812 7.45508 156.118 7.51345 156.405 7.63229C156.693 7.75112 156.943 7.91999 157.158 8.1389C157.372 8.3578 157.541 8.62674 157.668 8.94572C157.793 9.26261 157.858 9.62119 157.858 10.0152C157.858 10.3801 157.81 10.7136 157.714 11.0201C157.618 11.3266 157.474 11.5893 157.283 11.8123C157.091 12.0333 156.851 12.2064 156.564 12.3314C156.276 12.4544 155.943 12.517 155.564 12.517C155.224 12.517 154.882 12.469 154.538 12.369C154.195 12.271 153.836 12.0979 153.465 11.8499C153.353 11.9729 153.242 12.0688 153.132 12.1376C153.021 12.2064 152.911 12.2564 152.796 12.2897C152.682 12.3231 152.565 12.344 152.442 12.3523C152.319 12.3606 152.192 12.3648 152.054 12.3648H151.461C151.392 12.3648 151.329 12.3585 151.269 12.346C151.208 12.3335 151.156 12.3043 151.113 12.2585C151.069 12.2126 151.033 12.1417 151.008 12.0479C150.981 11.9541 150.969 11.8248 150.969 11.6601C150.969 11.3724 151.008 11.1744 151.085 11.0701C151.163 10.9638 151.288 10.9117 151.461 10.9117H151.677L151.675 10.9159Z" fill="white"/>
<path d="M110.991 29.5413C110.991 29.4183 111.016 29.3015 111.061 29.1931C111.109 29.0847 111.174 28.9909 111.257 28.9116C111.339 28.8324 111.434 28.7678 111.543 28.7198C111.651 28.6719 111.766 28.6469 111.891 28.6469C112.016 28.6469 112.13 28.6719 112.239 28.7198C112.347 28.7678 112.441 28.8324 112.52 28.9116C112.599 28.9909 112.664 29.0847 112.712 29.1931C112.76 29.3015 112.783 29.4162 112.783 29.5413C112.783 29.6664 112.76 29.781 112.712 29.8894C112.664 29.9978 112.599 30.0917 112.52 30.175C112.441 30.2564 112.347 30.3231 112.239 30.3689C112.13 30.4169 112.016 30.4419 111.891 30.4419C111.766 30.4419 111.651 30.4169 111.543 30.3689C111.434 30.321 111.341 30.2564 111.257 30.175C111.176 30.0937 111.109 29.9978 111.061 29.8894C111.014 29.781 110.991 29.6664 110.991 29.5413ZM108.93 29.5413C108.93 29.4183 108.955 29.3015 109.001 29.1931C109.048 29.0847 109.113 28.9909 109.196 28.9116C109.278 28.8324 109.374 28.7678 109.482 28.7198C109.59 28.6719 109.705 28.6469 109.83 28.6469C109.955 28.6469 110.07 28.6719 110.178 28.7198C110.286 28.7678 110.38 28.8324 110.459 28.9116C110.538 28.9909 110.603 29.0847 110.651 29.1931C110.699 29.3015 110.722 29.4162 110.722 29.5413C110.722 29.6664 110.699 29.781 110.651 29.8894C110.603 29.9978 110.538 30.0917 110.459 30.175C110.38 30.2564 110.286 30.3231 110.178 30.3689C110.07 30.4169 109.955 30.4419 109.83 30.4419C109.705 30.4419 109.59 30.4169 109.482 30.3689C109.374 30.321 109.28 30.2564 109.196 30.175C109.115 30.0937 109.048 29.9978 109.001 29.8894C108.953 29.781 108.93 29.6664 108.93 29.5413ZM108.215 24.6962C108.215 24.9359 108.246 25.1632 108.309 25.3758C108.371 25.5906 108.492 25.7761 108.671 25.9345C108.851 26.093 109.101 26.2181 109.421 26.3119C109.742 26.4057 110.159 26.4537 110.674 26.4537C111.084 26.4537 111.443 26.4349 111.743 26.3974C112.045 26.3598 112.299 26.3077 112.508 26.241C112.716 26.1743 112.885 26.0992 113.014 26.0159C113.143 25.9325 113.245 25.8449 113.316 25.7511C113.387 25.6594 113.437 25.5655 113.46 25.4717C113.485 25.3779 113.495 25.2903 113.495 25.2111C113.495 25.0944 113.462 24.9943 113.393 24.9088C113.324 24.8233 113.237 24.742 113.127 24.6691C113.016 24.594 112.891 24.5231 112.749 24.4522C112.608 24.3814 112.462 24.3063 112.312 24.225C112.162 24.1437 112.016 24.0499 111.874 23.9456C111.732 23.8414 111.605 23.7184 111.497 23.5766C111.387 23.4349 111.299 23.2702 111.23 23.0825C111.161 22.8949 111.128 22.6739 111.128 22.4237C111.128 22.0922 111.186 21.7587 111.301 21.4251C111.418 21.0915 111.591 20.7892 111.826 20.5203C112.06 20.2514 112.353 20.0325 112.708 19.8636C113.062 19.6947 113.477 19.6113 113.952 19.6113C114.108 19.6113 114.254 19.6218 114.391 19.6405C114.529 19.6614 114.656 19.6843 114.773 19.7114C114.889 19.7385 114.992 19.7677 115.085 19.799C115.177 19.8281 115.252 19.8553 115.312 19.8803V21.3563C115.017 21.2875 114.76 21.2437 114.546 21.225C114.329 21.2041 114.164 21.1958 114.048 21.1958C113.829 21.1958 113.637 21.2271 113.479 21.2896C113.318 21.3521 113.185 21.4334 113.081 21.5335C112.974 21.6336 112.897 21.7462 112.847 21.8692C112.797 21.9922 112.772 22.1173 112.772 22.2403C112.772 22.3633 112.808 22.4675 112.876 22.5613C112.947 22.6551 113.037 22.7448 113.149 22.8282C113.262 22.9116 113.389 22.9929 113.533 23.0721C113.677 23.1492 113.825 23.2326 113.977 23.3181C114.129 23.4036 114.277 23.4974 114.421 23.5975C114.564 23.6975 114.691 23.8101 114.804 23.9331C114.917 24.0561 115.006 24.1979 115.077 24.3563C115.148 24.5148 115.181 24.6941 115.181 24.8921C115.181 25.1319 115.15 25.3737 115.087 25.6156C115.025 25.8574 114.925 26.0909 114.785 26.314C114.646 26.5371 114.462 26.7476 114.237 26.9415C114.012 27.1354 113.731 27.3043 113.397 27.4481C113.064 27.592 112.672 27.7045 112.226 27.7879C111.778 27.8692 111.266 27.9109 110.686 27.9109C109.915 27.9109 109.267 27.8317 108.742 27.6712C108.217 27.5107 107.792 27.2918 107.469 27.0124C107.146 26.733 106.913 26.4036 106.773 26.0221C106.633 25.6427 106.562 25.2299 106.562 24.7858V22.7469H108.217V24.7024L108.215 24.6962Z" fill="white"/>
<path d="M117.481 20.84H119.136V25.8352C119.136 26.3981 119.081 26.8734 118.973 27.257C118.865 27.6406 118.698 27.9513 118.469 28.1868C118.242 28.4224 117.954 28.5934 117.606 28.6955C117.258 28.7998 116.846 28.8519 116.366 28.8519H115.977V27.3175H116.175C116.397 27.3175 116.591 27.3008 116.756 27.2695C116.921 27.2383 117.056 27.1695 117.164 27.0652C117.273 26.961 117.352 26.8088 117.404 26.6086C117.456 26.4085 117.481 26.1437 117.481 25.8102V20.8379V20.84Z" fill="white"/>
<path d="M123.617 25.1153C123.617 25.403 123.577 25.6011 123.496 25.7116C123.417 25.822 123.292 25.8763 123.125 25.8763H122.585C122.298 25.8763 122.035 25.845 121.798 25.7824C121.56 25.7199 121.354 25.6157 121.181 25.4697C121.008 25.3238 120.872 25.1278 120.777 24.8818C120.681 24.6358 120.633 24.3293 120.633 23.9603V17.1055H122.287V23.7393C122.287 23.8873 122.3 24.0062 122.327 24.0958C122.352 24.1855 122.392 24.2543 122.442 24.3022C122.492 24.3502 122.554 24.3814 122.631 24.3981C122.706 24.4148 122.796 24.4231 122.896 24.4231H123.129C123.194 24.4231 123.254 24.4294 123.315 24.4419C123.375 24.4544 123.427 24.4836 123.471 24.5295C123.515 24.5753 123.55 24.6441 123.579 24.7359C123.606 24.8276 123.621 24.9548 123.621 25.1132" fill="white"/>
<path d="M123.117 25.8769C123.048 25.8769 122.986 25.8707 122.925 25.8582C122.865 25.8457 122.813 25.8165 122.769 25.7706C122.725 25.7247 122.69 25.6539 122.665 25.56C122.64 25.4662 122.625 25.337 122.625 25.1723C122.625 24.8846 122.665 24.6865 122.742 24.5823C122.819 24.4759 122.944 24.4238 123.117 24.4238H124.982C125.051 24.4238 125.113 24.4301 125.174 24.4426C125.234 24.4551 125.286 24.4843 125.332 24.5302C125.378 24.576 125.415 24.6448 125.442 24.7365C125.469 24.8283 125.484 24.9555 125.484 25.1139C125.484 25.4016 125.444 25.5997 125.363 25.7102C125.284 25.8206 125.155 25.8749 124.98 25.8749H123.115L123.117 25.8769Z" fill="white"/>
<path d="M124.976 25.8769C124.907 25.8769 124.845 25.8707 124.784 25.8582C124.724 25.8457 124.672 25.8165 124.628 25.7706C124.584 25.7247 124.549 25.6539 124.524 25.56C124.497 25.4662 124.484 25.337 124.484 25.1723C124.484 24.8846 124.524 24.6865 124.601 24.5823C124.678 24.4759 124.803 24.4238 124.976 24.4238H126.841C126.91 24.4238 126.972 24.4301 127.033 24.4426C127.093 24.4551 127.145 24.4843 127.191 24.5302C127.237 24.576 127.275 24.6448 127.302 24.7365C127.329 24.8283 127.343 24.9555 127.343 25.1139C127.343 25.4016 127.304 25.5997 127.223 25.7102C127.143 25.8206 127.014 25.8749 126.839 25.8749H124.974L124.976 25.8769Z" fill="white"/>
<path d="M126.843 25.8769C126.775 25.8769 126.712 25.8707 126.652 25.8582C126.591 25.8457 126.539 25.8165 126.495 25.7706C126.452 25.7247 126.416 25.6539 126.391 25.56C126.366 25.4662 126.352 25.337 126.352 25.1723C126.352 24.8846 126.391 24.6865 126.468 24.5823C126.545 24.4759 126.67 24.4238 126.843 24.4238H128.708C128.777 24.4238 128.84 24.4301 128.9 24.4426C128.96 24.4551 129.013 24.4843 129.058 24.5302C129.104 24.576 129.142 24.6448 129.169 24.7365C129.196 24.8283 129.211 24.9555 129.211 25.1139C129.211 25.4016 129.171 25.5997 129.09 25.7102C129.011 25.8206 128.881 25.8749 128.706 25.8749H126.841L126.843 25.8769Z" fill="white"/>
<path d="M128.711 25.8769C128.642 25.8769 128.579 25.8707 128.519 25.8582C128.458 25.8457 128.406 25.8165 128.363 25.7706C128.319 25.7247 128.283 25.6539 128.258 25.56C128.233 25.4662 128.219 25.337 128.219 25.1723C128.219 24.8846 128.258 24.6865 128.335 24.5823C128.413 24.4759 128.538 24.4238 128.711 24.4238H130.576C130.644 24.4238 130.707 24.4301 130.767 24.4426C130.828 24.4551 130.88 24.4843 130.926 24.5302C130.971 24.576 131.009 24.6448 131.036 24.7365C131.063 24.8283 131.078 24.9555 131.078 25.1139C131.078 25.4016 131.038 25.5997 130.957 25.7102C130.878 25.8206 130.749 25.8749 130.573 25.8749H128.708L128.711 25.8769Z" fill="white"/>
<path d="M130.57 25.8769C130.501 25.8769 130.439 25.8707 130.378 25.8582C130.318 25.8457 130.266 25.8165 130.222 25.7706C130.178 25.7247 130.143 25.6539 130.118 25.56C130.091 25.4662 130.078 25.337 130.078 25.1723C130.078 24.8846 130.118 24.6865 130.195 24.5823C130.272 24.4759 130.397 24.4238 130.57 24.4238H132.435C132.504 24.4238 132.566 24.4301 132.627 24.4426C132.687 24.4551 132.739 24.4843 132.785 24.5302C132.831 24.576 132.868 24.6448 132.895 24.7365C132.923 24.8283 132.937 24.9555 132.937 25.1139C132.937 25.4016 132.898 25.5997 132.816 25.7102C132.737 25.8206 132.608 25.8749 132.433 25.8749H130.568L130.57 25.8769Z" fill="white"/>
<path d="M132.429 25.8769C132.361 25.8769 132.298 25.8707 132.238 25.8582C132.177 25.8457 132.125 25.8165 132.081 25.7706C132.038 25.7247 132.002 25.6539 131.977 25.56C131.952 25.4662 131.938 25.337 131.938 25.1723C131.938 24.8846 131.977 24.6865 132.054 24.5823C132.131 24.4759 132.256 24.4238 132.429 24.4238H134.294C134.363 24.4238 134.426 24.4301 134.486 24.4426C134.546 24.4551 134.599 24.4843 134.644 24.5302C134.69 24.576 134.728 24.6448 134.755 24.7365C134.782 24.8283 134.797 24.9555 134.797 25.1139C134.797 25.4016 134.757 25.5997 134.676 25.7102C134.596 25.8206 134.467 25.8749 134.292 25.8749H132.427L132.429 25.8769Z" fill="white"/>
<path d="M134.304 25.8769C134.236 25.8769 134.173 25.8707 134.113 25.8582C134.052 25.8457 134 25.8165 133.956 25.7706C133.913 25.7247 133.877 25.6539 133.852 25.56C133.827 25.4662 133.812 25.337 133.812 25.1723C133.812 24.8846 133.852 24.6865 133.929 24.5823C134.006 24.4759 134.131 24.4238 134.304 24.4238H136.169C136.238 24.4238 136.301 24.4301 136.361 24.4426C136.421 24.4551 136.474 24.4843 136.519 24.5302C136.565 24.576 136.603 24.6448 136.63 24.7365C136.657 24.8283 136.671 24.9555 136.671 25.1139C136.671 25.4016 136.632 25.5997 136.551 25.7102C136.471 25.8206 136.342 25.8749 136.167 25.8749H134.302L134.304 25.8769Z" fill="white"/>
<path d="M136.164 25.8769C136.095 25.8769 136.032 25.8707 135.972 25.8582C135.912 25.8457 135.859 25.8165 135.816 25.7706C135.772 25.7247 135.736 25.6539 135.711 25.56C135.684 25.4662 135.672 25.337 135.672 25.1723C135.672 24.8846 135.711 24.6865 135.789 24.5823C135.866 24.4759 135.991 24.4238 136.164 24.4238H138.029C138.097 24.4238 138.16 24.4301 138.22 24.4426C138.281 24.4551 138.333 24.4843 138.379 24.5302C138.425 24.576 138.462 24.6448 138.489 24.7365C138.516 24.8283 138.531 24.9555 138.531 25.1139C138.531 25.4016 138.491 25.5997 138.41 25.7102C138.331 25.8206 138.202 25.8749 138.027 25.8749H136.162L136.164 25.8769Z" fill="white"/>
<path d="M141.543 18.6565C141.543 18.5335 141.568 18.4167 141.616 18.3083C141.663 18.1999 141.728 18.1061 141.809 18.0227C141.891 17.9414 141.986 17.8747 142.095 17.8267C142.203 17.7788 142.318 17.7559 142.443 17.7559C142.568 17.7559 142.682 17.7809 142.791 17.8267C142.899 17.8747 142.993 17.9393 143.072 18.0227C143.151 18.104 143.216 18.1999 143.264 18.3083C143.312 18.4167 143.337 18.5314 143.337 18.6565C143.337 18.7816 143.312 18.8963 143.264 19.0047C143.216 19.1131 143.151 19.2069 143.072 19.2903C142.993 19.3716 142.899 19.4362 142.791 19.4821C142.682 19.5279 142.568 19.5509 142.443 19.5509C142.318 19.5509 142.203 19.5279 142.095 19.4821C141.986 19.4362 141.893 19.3716 141.809 19.2903C141.728 19.209 141.661 19.1131 141.616 19.0047C141.568 18.8963 141.543 18.7816 141.543 18.6565ZM140.53 23.1367C140.53 23.3536 140.557 23.5412 140.611 23.7038C140.665 23.8664 140.738 23.9999 140.83 24.1083C140.922 24.2167 141.03 24.2959 141.157 24.348C141.282 24.4001 141.418 24.4252 141.561 24.4252H142.287V23.3327C142.287 23.168 142.276 23.0096 142.257 22.8553C142.237 22.701 142.197 22.5634 142.134 22.4446C142.072 22.3237 141.986 22.2278 141.874 22.1548C141.761 22.0797 141.616 22.0443 141.436 22.0443C141.257 22.0443 141.122 22.0756 141.005 22.1381C140.888 22.2007 140.797 22.282 140.726 22.3841C140.655 22.4863 140.605 22.603 140.576 22.7344C140.547 22.8657 140.532 23.0012 140.532 23.1367M139.482 18.6565C139.482 18.5335 139.507 18.4167 139.555 18.3083C139.603 18.1999 139.667 18.1061 139.748 18.0227C139.83 17.9414 139.926 17.8747 140.034 17.8267C140.142 17.7788 140.257 17.7559 140.382 17.7559C140.507 17.7559 140.622 17.7809 140.73 17.8267C140.838 17.8747 140.932 17.9393 141.011 18.0227C141.09 18.104 141.155 18.1999 141.203 18.3083C141.251 18.4167 141.276 18.5314 141.276 18.6565C141.276 18.7816 141.251 18.8963 141.203 19.0047C141.155 19.1131 141.09 19.2069 141.011 19.2903C140.932 19.3716 140.838 19.4362 140.73 19.4821C140.622 19.5279 140.507 19.5509 140.382 19.5509C140.257 19.5509 140.142 19.5279 140.034 19.4821C139.926 19.4362 139.832 19.3716 139.748 19.2903C139.667 19.209 139.6 19.1131 139.555 19.0047C139.507 18.8963 139.482 18.7816 139.482 18.6565ZM139.14 24.4252C139.105 24.3543 139.073 24.2667 139.05 24.1646C139.025 24.0624 139.007 23.9561 138.99 23.8435C138.973 23.7309 138.963 23.6204 138.957 23.5078C138.95 23.3953 138.948 23.2952 138.948 23.2076C138.948 22.8761 139.005 22.5509 139.119 22.234C139.234 21.9171 139.398 21.6336 139.617 21.3855C139.836 21.1374 140.103 20.9373 140.417 20.7851C140.732 20.6329 141.095 20.5578 141.503 20.5578C141.822 20.5578 142.105 20.5975 142.351 20.6746C142.597 20.7517 142.81 20.8601 142.989 20.9956C143.168 21.1312 143.32 21.2896 143.441 21.4689C143.562 21.6482 143.66 21.84 143.735 22.0443C143.81 22.2486 143.862 22.455 143.893 22.6677C143.924 22.8803 143.941 23.0867 143.941 23.291V24.4252H144.75C144.818 24.4252 144.881 24.4314 144.941 24.4439C145.002 24.4564 145.054 24.4856 145.098 24.5315C145.141 24.5773 145.177 24.6461 145.202 24.7379C145.227 24.8296 145.241 24.9568 145.241 25.1152C145.241 25.4029 145.202 25.601 145.125 25.7115C145.048 25.822 144.923 25.8762 144.75 25.8762H138.023C137.954 25.8762 137.892 25.8699 137.831 25.8574C137.771 25.8449 137.719 25.8157 137.675 25.7699C137.631 25.724 137.596 25.6531 137.571 25.5593C137.546 25.4655 137.531 25.3362 137.531 25.1715C137.531 24.8838 137.571 24.6858 137.648 24.5815C137.725 24.4752 137.85 24.4231 138.023 24.4231H139.138L139.14 24.4252Z" fill="white"/>
<path d="M148.456 21.9785C148.156 21.9785 147.908 22.016 147.71 22.0931C147.512 22.1682 147.352 22.2474 147.227 22.3266C147.306 22.4309 147.398 22.5518 147.496 22.6915C147.596 22.8312 147.7 22.9729 147.808 23.1168C147.916 23.2606 148.023 23.3982 148.129 23.5275C148.235 23.6567 148.333 23.7652 148.425 23.8486C148.537 23.7756 148.64 23.6859 148.733 23.5754C148.827 23.4649 148.906 23.3503 148.971 23.2273C149.035 23.1043 149.085 22.9834 149.121 22.8645C149.156 22.7436 149.175 22.6435 149.175 22.5581C149.175 22.4976 149.167 22.433 149.15 22.3642C149.133 22.2933 149.1 22.2307 149.048 22.1745C148.996 22.1182 148.923 22.0723 148.829 22.0327C148.735 21.9952 148.61 21.9764 148.454 21.9764M145.849 24.426C146.024 24.426 146.212 24.4198 146.41 24.4073C146.608 24.3948 146.793 24.3739 146.97 24.3406L145.706 22.704C145.731 22.5914 145.762 22.4747 145.803 22.3496C145.845 22.2266 145.893 22.1077 145.947 21.9952C146.001 21.8826 146.056 21.7804 146.112 21.6866C146.168 21.5928 146.224 21.5177 146.281 21.4614C146.543 21.1779 146.868 20.9548 147.254 20.7964C147.639 20.6359 148.056 20.5566 148.504 20.5566C148.892 20.5566 149.231 20.6067 149.521 20.7067C149.811 20.8068 150.05 20.9382 150.238 21.1029C150.425 21.2676 150.567 21.4552 150.661 21.6658C150.755 21.8784 150.803 22.0931 150.803 22.3141C150.803 22.458 150.778 22.6206 150.725 22.802C150.673 22.9834 150.598 23.171 150.5 23.3628C150.402 23.5546 150.282 23.7422 150.136 23.9257C149.99 24.1092 149.823 24.2759 149.636 24.424H151.453C151.521 24.424 151.584 24.4302 151.644 24.4427C151.705 24.4552 151.757 24.4844 151.801 24.5303C151.844 24.5761 151.88 24.6449 151.905 24.7367C151.93 24.8284 151.944 24.9556 151.944 25.114C151.944 25.4017 151.905 25.5998 151.824 25.7103C151.744 25.8208 151.619 25.875 151.453 25.875H149.636C149.523 25.875 149.404 25.8666 149.279 25.8479C149.154 25.8291 149.025 25.802 148.892 25.7645C148.76 25.727 148.629 25.679 148.5 25.6206C148.371 25.5623 148.25 25.4914 148.137 25.408C147.762 25.5477 147.393 25.6602 147.031 25.7478C146.668 25.8333 146.295 25.8771 145.908 25.8771H144.757C144.689 25.8771 144.626 25.8708 144.566 25.8583C144.505 25.8458 144.453 25.8166 144.409 25.7707C144.366 25.7249 144.33 25.654 144.305 25.5602C144.28 25.4664 144.266 25.3371 144.266 25.1724C144.266 24.8847 144.305 24.6866 144.382 24.5824C144.459 24.4761 144.584 24.424 144.757 24.424H145.853L145.849 24.426Z" fill="white"/>
<path d="M152.895 24.4251V17.1074H154.55V25.8761H151.445C151.376 25.8761 151.314 25.8699 151.253 25.8574C151.193 25.8449 151.141 25.8157 151.097 25.7698C151.053 25.7239 151.018 25.653 150.993 25.5592C150.968 25.4654 150.953 25.3362 150.953 25.1715C150.953 24.8838 150.993 24.6857 151.07 24.5815C151.147 24.4751 151.272 24.423 151.445 24.423H152.895V24.4251Z" fill="white"/>
<path d="M157.709 17.1094H156.055V25.8781H157.709V17.1094Z" fill="white"/>
<path d="M64.7678 40.4894L63.7738 37.5936H63.7509L62.7236 40.4894H64.7678ZM64.6678 35.6484L67.6185 43.5415H65.818L65.2221 41.784H62.2714L61.6525 43.5415H59.9062L62.8903 35.6484H64.6699H64.6678Z" fill="white"/>
<path d="M72.2499 39.9932C72.1978 39.7722 72.1166 39.5762 72.0061 39.4073C71.8957 39.2385 71.7581 39.103 71.5914 39.0029C71.4247 38.9028 71.2247 38.8549 70.9892 38.8549C70.7537 38.8549 70.562 38.9049 70.3932 39.0029C70.2244 39.103 70.0827 39.2364 69.9723 39.4073C69.8619 39.5762 69.7806 39.7722 69.7285 39.9932C69.6764 40.2142 69.6514 40.4456 69.6514 40.6895C69.6514 40.9334 69.6764 41.1544 69.7285 41.3754C69.7806 41.5964 69.8619 41.7924 69.9723 41.9612C70.0827 42.1301 70.2224 42.2656 70.3932 42.3657C70.562 42.4658 70.7621 42.5158 70.9892 42.5158C71.2163 42.5158 71.4247 42.4658 71.5914 42.3657C71.7581 42.2656 71.8957 42.1322 72.0061 41.9612C72.1166 41.7924 72.1978 41.5964 72.2499 41.3754C72.302 41.1544 72.327 40.9251 72.327 40.6895C72.327 40.4539 72.302 40.2142 72.2499 39.9932ZM69.7097 35.6484V38.5234H69.7327C69.9244 38.2294 70.1828 38.0126 70.512 37.8771C70.8392 37.7416 71.1809 37.6728 71.5352 37.6728C71.8227 37.6728 72.1061 37.7312 72.3854 37.85C72.6646 37.9688 72.9167 38.1481 73.1418 38.392C73.3668 38.636 73.5481 38.9466 73.6898 39.326C73.8295 39.7055 73.9003 40.1579 73.9003 40.6812C73.9003 41.2044 73.8295 41.6569 73.6898 42.0363C73.5502 42.4157 73.3668 42.7264 73.1418 42.9703C72.9167 43.2142 72.6646 43.3935 72.3854 43.5123C72.1061 43.6312 71.8227 43.6895 71.5352 43.6895C71.1142 43.6895 70.7391 43.6228 70.4078 43.4915C70.0765 43.3581 69.8264 43.1329 69.6556 42.8181H69.6326V43.5478H68.1406V35.6547H69.7097V35.6484Z" fill="white"/>
<path d="M78.7603 43.5408V42.7444H78.7269C78.529 43.0758 78.2706 43.3156 77.9538 43.4636C77.6371 43.6116 77.3141 43.6846 76.9807 43.6846C76.5598 43.6846 76.2159 43.6304 75.9471 43.5178C75.6783 43.4073 75.4658 43.251 75.3116 43.0487C75.1574 42.8465 75.049 42.5984 74.9844 42.3086C74.9198 42.0189 74.8906 41.6957 74.8906 41.3413V37.8263H76.4597V41.0536C76.4597 41.5248 76.5327 41.8771 76.6806 42.1085C76.8286 42.3399 77.0891 42.4567 77.4662 42.4567C77.8934 42.4567 78.2018 42.3295 78.3935 42.0751C78.5852 41.8208 78.6811 41.4017 78.6811 40.8201V37.8242H80.2502V43.5387H78.7582L78.7603 43.5408Z" fill="white"/>
<path d="M87.9638 42.0822C88.2138 42.0822 88.4576 42.0425 88.6931 41.9612C88.9286 41.8799 89.1391 41.7465 89.3224 41.5589C89.5058 41.3712 89.6538 41.1252 89.7642 40.8229C89.8746 40.5206 89.9309 40.1516 89.9309 39.718C89.9309 39.3198 89.8913 38.9612 89.8142 38.6401C89.7371 38.3191 89.61 38.046 89.4329 37.8166C89.2558 37.5894 89.0224 37.4143 88.7306 37.2913C88.4389 37.1703 88.0805 37.1099 87.6533 37.1099H86.4155V42.0842H87.9617L87.9638 42.0822ZM88.0846 35.6484C88.5931 35.6484 89.0661 35.7297 89.5037 35.8924C89.9413 36.055 90.3206 36.2968 90.6415 36.622C90.9624 36.9473 91.2125 37.3517 91.3937 37.8375C91.575 38.3232 91.6646 38.8945 91.6646 39.5512C91.6646 40.1266 91.5917 40.6561 91.4438 41.144C91.2958 41.6297 91.0728 42.0509 90.7749 42.4032C90.4769 42.7576 90.1039 43.0349 89.6579 43.2371C89.212 43.4394 88.6869 43.5415 88.0826 43.5415H84.6797V35.6484H88.0826H88.0846Z" fill="white"/>
<path d="M94.2702 35.6484V38.6214H94.3035C94.5015 38.2899 94.7557 38.048 95.0662 37.8979C95.3746 37.7478 95.6767 37.6707 95.9726 37.6707C96.3936 37.6707 96.7374 37.727 97.0062 37.8417C97.275 37.9563 97.4876 38.1148 97.6418 38.317C97.796 38.5192 97.9043 38.7673 97.9669 39.0571C98.0294 39.349 98.0606 39.67 98.0606 40.0244V43.5394H96.4915V40.3122C96.4915 39.841 96.4186 39.4887 96.2706 39.2572C96.1227 39.0258 95.8622 38.9091 95.4871 38.9091C95.0599 38.9091 94.7494 39.0362 94.5598 39.2906C94.3681 39.5449 94.2722 39.964 94.2722 40.5456V43.5415H92.7031V35.6484H94.2722H94.2702Z" fill="white"/>
<path d="M102.811 40.7428C102.744 40.8012 102.661 40.8491 102.563 40.8804C102.463 40.9137 102.357 40.9409 102.242 40.9638C102.127 40.9867 102.009 41.0034 101.883 41.0201C101.758 41.0347 101.633 41.0534 101.508 41.0743C101.39 41.0972 101.275 41.1264 101.16 41.1618C101.046 41.1994 100.946 41.2494 100.862 41.3119C100.777 41.3745 100.71 41.4537 100.658 41.5496C100.606 41.6455 100.581 41.7664 100.581 41.9145C100.581 42.0625 100.606 42.173 100.658 42.2689C100.71 42.3648 100.779 42.4398 100.869 42.4961C100.956 42.5524 101.06 42.5899 101.177 42.6129C101.296 42.6358 101.417 42.6462 101.542 42.6462C101.85 42.6462 102.09 42.5941 102.261 42.492C102.432 42.3898 102.554 42.2647 102.636 42.1209C102.717 41.977 102.767 41.8311 102.786 41.6851C102.805 41.5371 102.813 41.4204 102.813 41.3307V40.7449L102.811 40.7428ZM99.187 39.5836C99.2099 39.2146 99.3016 38.9103 99.4642 38.6663C99.6267 38.4224 99.833 38.2285 100.083 38.0805C100.333 37.9325 100.614 37.8282 100.929 37.7657C101.242 37.7031 101.556 37.6719 101.873 37.6719C102.161 37.6719 102.45 37.6927 102.746 37.7323C103.04 37.7719 103.309 37.8533 103.553 37.97C103.796 38.0888 103.994 38.2515 104.149 38.462C104.303 38.6726 104.38 38.9499 104.38 39.2959V42.2689C104.38 42.5274 104.394 42.7734 104.424 43.009C104.453 43.2446 104.505 43.4218 104.578 43.5406H102.986C102.957 43.453 102.932 43.3613 102.915 43.2696C102.896 43.1779 102.884 43.084 102.875 42.9881C102.625 43.2466 102.329 43.4259 101.992 43.5302C101.652 43.6344 101.306 43.6845 100.954 43.6845C100.681 43.6845 100.427 43.6511 100.191 43.5844C99.9559 43.5177 99.7496 43.4155 99.5725 43.2758C99.3954 43.1362 99.2579 42.9589 99.1578 42.7463C99.0578 42.5316 99.0078 42.2772 99.0078 41.9833C99.0078 41.658 99.0641 41.3912 99.1787 41.1827C99.2933 40.9721 99.4392 40.8053 99.6205 40.6803C99.8017 40.5552 100.008 40.4613 100.239 40.3988C100.471 40.3363 100.706 40.2862 100.942 40.2508C101.177 40.2133 101.408 40.1841 101.638 40.1632C101.865 40.1403 102.069 40.1069 102.246 40.0631C102.423 40.0194 102.563 39.9547 102.665 39.8693C102.767 39.7838 102.815 39.6608 102.809 39.4982C102.809 39.3293 102.782 39.1938 102.725 39.0937C102.669 38.9936 102.596 38.9165 102.504 38.8623C102.413 38.8081 102.306 38.7706 102.184 38.7518C102.063 38.733 101.931 38.7247 101.792 38.7247C101.483 38.7247 101.24 38.7914 101.062 38.9228C100.885 39.0562 100.783 39.2772 100.752 39.5857H99.1829L99.187 39.5836Z" fill="white"/>
<path d="M109.705 39.9932C109.653 39.7722 109.572 39.5762 109.461 39.4073C109.351 39.2385 109.213 39.103 109.047 39.0029C108.88 38.9028 108.68 38.8549 108.444 38.8549C108.209 38.8549 108.017 38.9049 107.848 39.0029C107.68 39.103 107.538 39.2364 107.428 39.4073C107.317 39.5762 107.236 39.7722 107.184 39.9932C107.132 40.2142 107.107 40.4456 107.107 40.6895C107.107 40.9334 107.132 41.1544 107.184 41.3754C107.236 41.5964 107.317 41.7924 107.428 41.9612C107.538 42.1301 107.678 42.2656 107.848 42.3657C108.017 42.4658 108.217 42.5158 108.444 42.5158C108.672 42.5158 108.88 42.4658 109.047 42.3657C109.213 42.2656 109.351 42.1322 109.461 41.9612C109.572 41.7924 109.653 41.5964 109.705 41.3754C109.757 41.1544 109.782 40.9251 109.782 40.6895C109.782 40.4539 109.757 40.2142 109.705 39.9932ZM107.163 35.6484V38.5234H107.186C107.377 38.2294 107.636 38.0126 107.965 37.8771C108.292 37.7416 108.634 37.6728 108.988 37.6728C109.276 37.6728 109.559 37.7312 109.838 37.85C110.118 37.9688 110.37 38.1481 110.595 38.392C110.82 38.636 111.001 38.9466 111.143 39.326C111.283 39.7055 111.353 40.1579 111.353 40.6812C111.353 41.2044 111.283 41.6569 111.143 42.0363C111.003 42.4157 110.82 42.7264 110.595 42.9703C110.37 43.2142 110.118 43.3935 109.838 43.5123C109.559 43.6312 109.276 43.6895 108.988 43.6895C108.567 43.6895 108.192 43.6228 107.861 43.4915C107.53 43.3581 107.28 43.1329 107.109 42.8181H107.086V43.5478H105.594V35.6547H107.163V35.6484Z" fill="white"/>
<path d="M113.96 43.5415H112.391V37.8271H113.96V43.5415ZM112.391 35.6484H113.96V36.941H112.391V35.6484Z" fill="white"/>
<path d="M63.9722 51.5012C64.3702 51.5012 64.6682 51.4137 64.8682 51.2365C65.0662 51.0592 65.1662 50.7715 65.1662 50.3733C65.1662 49.9751 65.0662 49.7125 64.8682 49.5394C64.6703 49.3664 64.3702 49.2788 63.9722 49.2788H62.0718V51.5012H63.9722ZM64.5911 47.9299C64.9453 47.9299 65.2621 47.9883 65.5476 48.1009C65.831 48.2156 66.0748 48.3719 66.2769 48.57C66.479 48.768 66.6332 48.9995 66.7416 49.2601C66.8479 49.5227 66.9021 49.8042 66.9021 50.1065C66.9021 50.5714 66.8041 50.9717 66.6082 51.3115C66.4124 51.6513 66.0956 51.9078 65.6518 52.085V52.1079C65.8643 52.1663 66.0414 52.2559 66.1811 52.3789C66.3207 52.4998 66.4353 52.6437 66.5228 52.8105C66.6124 52.9773 66.6749 53.1586 66.7166 53.3567C66.7562 53.5548 66.7854 53.7549 66.7999 53.953C66.8062 54.078 66.8145 54.2261 66.8229 54.3949C66.8291 54.5638 66.8437 54.7368 66.8625 54.9141C66.8812 55.0913 66.9104 55.258 66.95 55.4165C66.9896 55.5749 67.0521 55.7105 67.1313 55.8209H65.3975C65.3017 55.5708 65.2433 55.2726 65.2204 54.9245C65.1975 54.5784 65.1641 54.2469 65.1204 53.93C65.062 53.5172 64.937 53.2149 64.7453 53.0231C64.5536 52.8313 64.241 52.7354 63.8055 52.7354H62.0718V55.8189H60.3359V47.9258H64.589L64.5911 47.9299Z" fill="white"/>
<path d="M71.6029 51.4438C71.4154 51.2374 71.1299 51.1352 70.7465 51.1352C70.4964 51.1352 70.2881 51.1769 70.1214 51.2624C69.9547 51.3479 69.8234 51.4521 69.7233 51.5772C69.6233 51.7023 69.5546 51.8357 69.5129 51.9754C69.4733 52.1151 69.4483 52.2402 69.442 52.3507H71.9947C71.9218 51.9525 71.7905 51.6502 71.6029 51.4438ZM69.8296 54.4521C70.0651 54.6815 70.4048 54.794 70.8465 54.794C71.1633 54.794 71.4362 54.7148 71.6634 54.5564C71.8926 54.3979 72.0322 54.2311 72.0822 54.0539H73.4638C73.2429 54.7398 72.9033 55.2298 72.4469 55.5237C71.9905 55.8177 71.4383 55.9657 70.7903 55.9657C70.3402 55.9657 69.9359 55.8948 69.5754 55.751C69.2149 55.6071 68.9086 55.4028 68.6585 55.138C68.4085 54.8733 68.2147 54.5564 68.0792 54.1874C67.9438 53.8184 67.875 53.4139 67.875 52.9719C67.875 52.5299 67.9459 52.1463 68.0855 51.7773C68.2251 51.4083 68.4251 51.0893 68.6814 50.8204C68.9398 50.5515 69.2461 50.3388 69.6046 50.1845C69.9609 50.0303 70.3568 49.9531 70.7923 49.9531C71.2779 49.9531 71.703 50.0469 72.0635 50.2346C72.424 50.4222 72.722 50.6745 72.9533 50.9914C73.1846 51.3082 73.3534 51.6689 73.4555 52.0755C73.5576 52.4799 73.5951 52.9052 73.5659 53.3472H69.4441C69.467 53.8559 69.5941 54.2249 69.8317 54.4521" fill="white"/>
<path d="M78.053 53.0261C77.9863 53.0845 77.9029 53.1325 77.805 53.1637C77.705 53.1971 77.5987 53.2242 77.4841 53.2471C77.3695 53.2701 77.2507 53.2867 77.1257 53.3034C77.0006 53.318 76.8756 53.3368 76.7506 53.3576C76.6318 53.3805 76.5172 53.4097 76.4026 53.4452C76.288 53.4827 76.188 53.5327 76.1046 53.5953C76.0192 53.6578 75.9525 53.7371 75.9004 53.833C75.8483 53.9289 75.8233 54.0498 75.8233 54.1978C75.8233 54.3458 75.8483 54.4563 75.9004 54.5522C75.9525 54.6481 76.0213 54.7232 76.1109 54.7795C76.1984 54.8357 76.3026 54.8733 76.4193 54.8962C76.538 54.9191 76.6589 54.9296 76.7839 54.9296C77.0923 54.9296 77.332 54.8774 77.5028 54.7753C77.6716 54.6731 77.7967 54.548 77.8779 54.4042C77.9592 54.2603 78.0092 54.1144 78.028 53.9685C78.0467 53.8204 78.0551 53.7037 78.0551 53.614V53.0282L78.053 53.0261ZM74.4292 51.8649C74.4521 51.4959 74.5438 51.1915 74.7064 50.9476C74.8689 50.7037 75.0752 50.5098 75.3253 50.3617C75.5753 50.2137 75.8566 50.1095 76.1713 50.0469C76.4839 49.9844 76.7985 49.9531 77.1152 49.9531C77.4028 49.9531 77.6925 49.974 77.9884 50.0136C78.2822 50.0532 78.551 50.1345 78.7948 50.2513C79.0386 50.3701 79.2366 50.5327 79.3908 50.7433C79.545 50.9538 79.6221 51.2311 79.6221 51.5772V54.5501C79.6221 54.8086 79.6367 55.0546 79.6658 55.2902C79.695 55.5258 79.7471 55.703 79.82 55.8219H78.228C78.1988 55.7343 78.1738 55.6426 78.1572 55.5508C78.1384 55.4591 78.1259 55.3653 78.1176 55.2694C77.8675 55.5279 77.5716 55.7072 77.234 55.8114C76.8944 55.9157 76.5485 55.9657 76.1963 55.9657C75.9233 55.9657 75.6691 55.9324 75.4336 55.8656C75.1981 55.7989 74.9918 55.6968 74.8147 55.5571C74.6376 55.4174 74.5001 55.2402 74.4 55.0275C74.3 54.8128 74.25 54.5585 74.25 54.2645C74.25 53.9393 74.3063 53.6724 74.4209 53.4639C74.5355 53.2534 74.6814 53.0866 74.8626 52.9615C75.0419 52.8364 75.2502 52.7426 75.4815 52.6801C75.7128 52.6175 75.9483 52.5675 76.1838 52.532C76.4193 52.4945 76.6506 52.4653 76.8798 52.4445C77.1069 52.4215 77.3111 52.3882 77.4883 52.3444C77.6654 52.3006 77.805 52.236 77.9071 52.1505C78.0092 52.065 78.0571 51.942 78.0509 51.7794C78.0509 51.6105 78.0238 51.475 77.9675 51.375C77.9113 51.2749 77.8383 51.1978 77.7466 51.1436C77.655 51.0893 77.5487 51.0518 77.4257 51.0331C77.3049 51.0143 77.1736 51.006 77.034 51.006C76.7256 51.006 76.4818 51.0727 76.3046 51.204C76.1275 51.3374 76.0254 51.5584 75.9942 51.867H74.425L74.4292 51.8649Z" fill="white"/>
<path d="M82.4441 47.9297H80.875V55.8228H82.4441V47.9297Z" fill="white"/>
<path d="M92.8212 47.9297V49.3891H88.6556V51.0798H92.4794V52.4287H88.6556V54.3634H92.9087V55.8228H86.9219V47.9297H92.8212Z" fill="white"/>
<path d="M95.241 54.4024C95.3118 54.5233 95.4014 54.6234 95.5119 54.7005C95.6223 54.7776 95.7494 54.836 95.8932 54.8715C96.037 54.909 96.187 54.9257 96.3413 54.9257C96.4517 54.9257 96.5684 54.9131 96.6893 54.886C96.8101 54.861 96.9206 54.8193 97.0206 54.7651C97.1206 54.7109 97.204 54.6359 97.2686 54.5441C97.3352 54.4524 97.3686 54.3357 97.3686 54.196C97.3686 53.9604 97.2123 53.7832 96.8997 53.6664C96.5871 53.5476 96.1495 53.4308 95.5911 53.312C95.3619 53.2599 95.141 53.1994 94.9222 53.1306C94.7055 53.0598 94.5117 52.968 94.3429 52.8534C94.1741 52.7387 94.0366 52.5948 93.9344 52.4218C93.8303 52.2488 93.7802 52.0361 93.7802 51.7859C93.7802 51.4169 93.8511 51.1146 93.9949 50.879C94.1387 50.6435 94.3283 50.4579 94.5638 50.3203C94.7992 50.1848 95.0639 50.0889 95.3598 50.0326C95.6536 49.9763 95.9557 49.9492 96.2662 49.9492C96.5767 49.9492 96.8747 49.9784 97.1664 50.0368C97.4582 50.0952 97.7166 50.1952 97.9458 50.3349C98.175 50.4746 98.3646 50.6622 98.5147 50.8936C98.6647 51.125 98.7564 51.419 98.7856 51.7734H97.2936C97.2706 51.4711 97.1581 51.2668 96.9518 51.1605C96.7455 51.0542 96.5017 51 96.2225 51C96.135 51 96.0391 51.0062 95.9349 51.0166C95.8328 51.0271 95.7369 51.0521 95.6536 51.0875C95.5682 51.1251 95.4973 51.1772 95.4369 51.2481C95.3785 51.3189 95.3494 51.4128 95.3494 51.5295C95.3494 51.6692 95.4015 51.7838 95.5036 51.8714C95.6057 51.959 95.7411 52.0319 95.9057 52.0861C96.0724 52.1424 96.2621 52.1904 96.4746 52.2363C96.6893 52.28 96.906 52.328 97.1268 52.3801C97.354 52.4322 97.577 52.4948 97.7958 52.5677C98.0125 52.6407 98.2063 52.7387 98.3751 52.8617C98.5439 52.9826 98.6814 53.1348 98.7835 53.3141C98.8856 53.4955 98.9377 53.7186 98.9377 53.9833C98.9377 54.3586 98.8627 54.6734 98.7106 54.9277C98.5584 55.1821 98.3626 55.3864 98.1187 55.5407C97.8749 55.6949 97.5978 55.8034 97.2852 55.8659C96.9726 55.9284 96.6538 55.9597 96.3287 55.9597C96.0037 55.9597 95.6723 55.9264 95.3556 55.8596C95.0389 55.7929 94.7575 55.6824 94.5096 55.5282C94.2637 55.3739 94.0595 55.1696 93.9011 54.9152C93.7427 54.6609 93.6552 54.3419 93.6406 53.9583H95.1326C95.1326 54.1272 95.1681 54.2731 95.2368 54.394" fill="white"/>
<path d="M102.986 50.1082V51.159H101.838V53.9881C101.838 54.2528 101.881 54.43 101.971 54.5197C102.061 54.6073 102.236 54.6531 102.502 54.6531C102.59 54.6531 102.675 54.649 102.757 54.6427C102.838 54.6344 102.915 54.6239 102.988 54.6093V55.8248C102.854 55.8477 102.709 55.8623 102.546 55.8686C102.384 55.8769 102.225 55.879 102.071 55.879C101.827 55.879 101.598 55.8623 101.381 55.829C101.164 55.7956 100.973 55.731 100.806 55.6351C100.639 55.5392 100.51 55.4037 100.414 55.2264C100.318 55.0492 100.271 54.8178 100.271 54.5301V51.159H99.3203V50.1082H100.271V48.3945H101.84V50.1082H102.988H102.986Z" fill="white"/>
<path d="M107.295 53.0261C107.228 53.0845 107.145 53.1325 107.047 53.1637C106.947 53.1971 106.841 53.2242 106.726 53.2471C106.612 53.2701 106.493 53.2867 106.368 53.3034C106.243 53.318 106.118 53.3368 105.993 53.3576C105.874 53.3805 105.759 53.4097 105.645 53.4452C105.53 53.4827 105.43 53.5327 105.347 53.5953C105.261 53.6578 105.195 53.7371 105.143 53.833C105.09 53.9289 105.065 54.0498 105.065 54.1978C105.065 54.3458 105.09 54.4563 105.143 54.5522C105.195 54.6481 105.263 54.7232 105.353 54.7795C105.441 54.8357 105.545 54.8733 105.661 54.8962C105.78 54.9191 105.901 54.9296 106.026 54.9296C106.335 54.9296 106.574 54.8774 106.745 54.7753C106.914 54.6731 107.039 54.548 107.12 54.4042C107.201 54.2603 107.251 54.1144 107.27 53.9685C107.289 53.8204 107.297 53.7037 107.297 53.614V53.0282L107.295 53.0261ZM103.671 51.8649C103.694 51.4959 103.786 51.1915 103.949 50.9476C104.111 50.7037 104.317 50.5098 104.567 50.3617C104.817 50.2137 105.099 50.1095 105.413 50.0469C105.726 49.9844 106.041 49.9531 106.357 49.9531C106.645 49.9531 106.935 49.974 107.231 50.0136C107.524 50.0532 107.793 50.1345 108.037 50.2513C108.281 50.3701 108.479 50.5327 108.633 50.7433C108.787 50.9538 108.864 51.2311 108.864 51.5772V54.5501C108.864 54.8086 108.879 55.0546 108.908 55.2902C108.937 55.5258 108.989 55.703 109.062 55.8219H107.47C107.441 55.7343 107.416 55.6426 107.399 55.5508C107.381 55.4591 107.368 55.3653 107.36 55.2694C107.11 55.5279 106.814 55.7072 106.476 55.8114C106.137 55.9157 105.791 55.9657 105.438 55.9657C105.165 55.9657 104.911 55.9324 104.676 55.8656C104.44 55.7989 104.234 55.6968 104.057 55.5571C103.88 55.4174 103.742 55.2402 103.642 55.0275C103.542 54.8128 103.492 54.5585 103.492 54.2645C103.492 53.9393 103.548 53.6724 103.663 53.4639C103.778 53.2534 103.924 53.0866 104.105 52.9615C104.286 52.8364 104.492 52.7426 104.724 52.6801C104.955 52.6175 105.19 52.5675 105.426 52.532C105.661 52.4945 105.893 52.4653 106.122 52.4445C106.349 52.4215 106.553 52.3882 106.73 52.3444C106.908 52.3006 107.047 52.236 107.149 52.1505C107.251 52.065 107.299 51.942 107.293 51.7794C107.293 51.6105 107.266 51.475 107.21 51.375C107.153 51.2749 107.081 51.1978 106.989 51.1436C106.897 51.0893 106.791 51.0518 106.668 51.0331C106.547 51.0143 106.416 51.006 106.276 51.006C105.968 51.006 105.724 51.0727 105.547 51.204C105.37 51.3374 105.268 51.5584 105.236 51.867H103.667L103.671 51.8649Z" fill="white"/>
<path d="M113.212 50.1082V51.159H112.064V53.9881C112.064 54.2528 112.108 54.43 112.197 54.5197C112.285 54.6073 112.462 54.6531 112.729 54.6531C112.816 54.6531 112.902 54.649 112.983 54.6427C113.064 54.6344 113.141 54.6239 113.214 54.6093V55.8248C113.081 55.8477 112.935 55.8623 112.773 55.8686C112.61 55.8769 112.452 55.879 112.298 55.879C112.054 55.879 111.824 55.8623 111.608 55.829C111.391 55.7956 111.199 55.731 111.033 55.6351C110.866 55.5392 110.737 55.4037 110.641 55.2264C110.545 55.0492 110.497 54.8178 110.497 54.5301V51.159H109.547V50.1082H110.497V48.3945H112.066V50.1082H113.214H113.212Z" fill="white"/>
<path d="M117.427 51.4438C117.239 51.2374 116.954 51.1352 116.57 51.1352C116.32 51.1352 116.112 51.1769 115.945 51.2624C115.779 51.3479 115.647 51.4521 115.547 51.5772C115.447 51.7023 115.379 51.8357 115.337 51.9754C115.297 52.1151 115.272 52.2402 115.266 52.3507H117.819C117.746 51.9525 117.614 51.6502 117.427 51.4438ZM115.656 54.4521C115.891 54.6815 116.231 54.794 116.673 54.794C116.989 54.794 117.262 54.7148 117.489 54.5564C117.719 54.3979 117.858 54.2311 117.91 54.0539H119.292C119.071 54.7398 118.731 55.2298 118.275 55.5237C117.819 55.8177 117.266 55.9657 116.618 55.9657C116.168 55.9657 115.764 55.8948 115.404 55.751C115.043 55.6071 114.737 55.4028 114.487 55.138C114.237 54.8733 114.043 54.5564 113.907 54.1874C113.772 53.8184 113.703 53.4139 113.703 52.9719C113.703 52.5299 113.774 52.1463 113.914 51.7773C114.053 51.4083 114.253 51.0893 114.51 50.8204C114.768 50.5515 115.074 50.3388 115.433 50.1845C115.789 50.0303 116.185 49.9531 116.62 49.9531C117.106 49.9531 117.529 50.0469 117.892 50.2346C118.252 50.4222 118.55 50.6745 118.781 50.9914C119.013 51.3082 119.181 51.6689 119.284 52.0755C119.386 52.4799 119.423 52.9052 119.394 53.3472H115.272C115.295 53.8559 115.422 54.2249 115.66 54.4521" fill="white"/>
<path d="M128.606 50.0372C128.502 49.8704 128.375 49.7265 128.219 49.6014C128.065 49.4764 127.89 49.3784 127.694 49.3075C127.498 49.2366 127.294 49.2032 127.081 49.2032C126.691 49.2032 126.358 49.2783 126.087 49.4305C125.814 49.5827 125.593 49.7849 125.424 50.0393C125.256 50.2936 125.131 50.5834 125.054 50.9065C124.976 51.2297 124.937 51.5653 124.937 51.9114C124.937 52.2575 124.976 52.566 125.054 52.8788C125.131 53.1915 125.254 53.475 125.424 53.7252C125.593 53.9754 125.814 54.1776 126.087 54.3277C126.36 54.4799 126.691 54.5549 127.081 54.5549C127.612 54.5549 128.025 54.3923 128.325 54.0692C128.623 53.744 128.807 53.3166 128.871 52.787H130.551C130.507 53.2811 130.392 53.7273 130.209 54.1255C130.026 54.5237 129.782 54.8614 129.48 55.1429C129.177 55.4243 128.823 55.637 128.419 55.785C128.015 55.933 127.569 56.006 127.081 56.006C126.477 56.006 125.933 55.9017 125.452 55.6912C124.968 55.4806 124.562 55.1929 124.23 54.8239C123.899 54.4549 123.645 54.0233 123.468 53.525C123.291 53.0268 123.203 52.491 123.203 51.9156C123.203 51.3402 123.291 50.7794 123.468 50.2748C123.645 49.7703 123.899 49.3304 124.23 48.9531C124.562 48.5778 124.968 48.2818 125.452 48.0691C125.933 47.8565 126.477 47.748 127.081 47.748C127.517 47.748 127.927 47.8106 128.313 47.9357C128.7 48.0608 129.046 48.2442 129.35 48.4819C129.657 48.7217 129.909 49.0177 130.107 49.3721C130.305 49.7265 130.43 50.131 130.482 50.5876H128.802C128.773 50.3895 128.706 50.206 128.604 50.0413" fill="white"/>
<path d="M135.023 51.4438C134.835 51.2374 134.55 51.1352 134.166 51.1352C133.916 51.1352 133.708 51.1769 133.541 51.2624C133.374 51.3479 133.243 51.4521 133.143 51.5772C133.043 51.7023 132.974 51.8357 132.933 51.9754C132.893 52.1151 132.868 52.2402 132.862 52.3507H135.415C135.342 51.9525 135.21 51.6502 135.023 51.4438ZM133.249 54.4521C133.485 54.6815 133.825 54.794 134.266 54.794C134.583 54.794 134.856 54.7148 135.083 54.5564C135.312 54.3979 135.452 54.2311 135.504 54.0539H136.886C136.665 54.7398 136.325 55.2298 135.869 55.5237C135.412 55.8177 134.86 55.9657 134.212 55.9657C133.762 55.9657 133.358 55.8948 132.997 55.751C132.637 55.6071 132.33 55.4028 132.08 55.138C131.83 54.8733 131.637 54.5564 131.501 54.1874C131.366 53.8184 131.297 53.4139 131.297 52.9719C131.297 52.5299 131.368 52.1463 131.507 51.7773C131.647 51.4083 131.847 51.0893 132.103 50.8204C132.362 50.5515 132.668 50.3388 133.026 50.1845C133.383 50.0303 133.779 49.9531 134.214 49.9531C134.7 49.9531 135.123 50.0469 135.485 50.2346C135.846 50.4222 136.144 50.6745 136.375 50.9914C136.606 51.3082 136.775 51.6689 136.877 52.0755C136.979 52.4799 137.017 52.9052 136.988 53.3472H132.866C132.889 53.8559 133.016 54.2249 133.254 54.4521" fill="white"/>
<path d="M139.402 50.1074V50.9038H139.435C139.633 50.5723 139.892 50.3305 140.208 50.1804C140.525 50.0303 140.848 49.9531 141.181 49.9531C141.6 49.9531 141.946 50.0115 142.215 50.1241C142.484 50.2387 142.696 50.3972 142.851 50.5994C143.005 50.8016 143.113 51.0497 143.178 51.3395C143.24 51.6314 143.272 51.9525 143.272 52.3069V55.8219H141.702V52.5946C141.702 52.1234 141.63 51.7711 141.482 51.5397C141.334 51.3082 141.073 51.1915 140.698 51.1915C140.271 51.1915 139.96 51.3187 139.771 51.573C139.579 51.8274 139.483 52.2464 139.483 52.8281V55.8239H137.914V50.1095H139.406L139.402 50.1074Z" fill="white"/>
<path d="M147.603 50.1082V51.159H146.455V53.9881C146.455 54.2528 146.499 54.43 146.588 54.5197C146.678 54.6073 146.853 54.6531 147.119 54.6531C147.207 54.6531 147.292 54.649 147.374 54.6427C147.455 54.6344 147.532 54.6239 147.605 54.6093V55.8248C147.472 55.8477 147.326 55.8623 147.163 55.8686C147.001 55.8769 146.842 55.879 146.688 55.879C146.444 55.879 146.215 55.8623 145.998 55.829C145.782 55.7956 145.59 55.731 145.423 55.6351C145.257 55.5392 145.127 55.4037 145.032 55.2264C144.936 55.0492 144.888 54.8178 144.888 54.5301V51.159H143.938V50.1082H144.888V48.3945H146.457V50.1082H147.605H147.603Z" fill="white"/>
<path d="M149.844 50.1074V51.1686H149.867C149.939 50.9914 150.039 50.8287 150.164 50.6766C150.29 50.5264 150.433 50.3972 150.596 50.2888C150.758 50.1825 150.931 50.0991 151.115 50.0407C151.298 49.9823 151.49 49.9531 151.69 49.9531C151.792 49.9531 151.907 49.9719 152.032 50.0094V51.4688C151.959 51.4542 151.869 51.4417 151.767 51.4292C151.665 51.4187 151.565 51.4125 151.469 51.4125C151.181 51.4125 150.938 51.4604 150.74 51.5563C150.542 51.6522 150.381 51.7836 150.258 51.9483C150.137 52.1151 150.05 52.3069 149.998 52.5299C149.946 52.7509 149.921 52.9907 149.921 53.2492V55.8239H148.352V50.1095H149.844V50.1074Z" fill="white"/>
<path d="M155.9 51.4438C155.712 51.2374 155.427 51.1352 155.043 51.1352C154.793 51.1352 154.585 51.1769 154.418 51.2624C154.252 51.3479 154.12 51.4521 154.02 51.5772C153.92 51.7023 153.851 51.8357 153.81 51.9754C153.77 52.1151 153.745 52.2402 153.739 52.3507H156.292C156.219 51.9525 156.087 51.6502 155.9 51.4438ZM154.126 54.4521C154.362 54.6815 154.702 54.794 155.143 54.794C155.46 54.794 155.733 54.7148 155.96 54.5564C156.189 54.3979 156.329 54.2311 156.379 54.0539H157.761C157.54 54.7398 157.2 55.2298 156.744 55.5237C156.287 55.8177 155.735 55.9657 155.087 55.9657C154.637 55.9657 154.233 55.8948 153.872 55.751C153.512 55.6071 153.205 55.4028 152.955 55.138C152.705 54.8733 152.512 54.5564 152.376 54.1874C152.241 53.8184 152.172 53.4139 152.172 52.9719C152.172 52.5299 152.243 52.1463 152.382 51.7773C152.522 51.4083 152.722 51.0893 152.978 50.8204C153.237 50.5515 153.543 50.3388 153.901 50.1845C154.258 50.0303 154.654 49.9531 155.089 49.9531C155.575 49.9531 156 50.0469 156.36 50.2346C156.721 50.4222 157.019 50.6745 157.25 50.9914C157.481 51.3082 157.65 51.6689 157.752 52.0755C157.854 52.4799 157.892 52.9052 157.863 53.3472H153.741C153.764 53.8559 153.891 54.2249 154.129 54.4521" fill="white"/>
<path d="M21.2529 35.1678H31.5678V31.7257H21.2529V35.1678ZM31.5678 24.8438H52.1996V21.4018H31.5678V24.8438ZM21.2529 28.2858H31.5678V24.8438H21.2529V28.2858ZM0 3.59961V55.824H31.5678V52.3862L3.44038 52.382V7.04163H52.1996V3.59961H0ZM21.2529 21.4018H31.5678V17.9598H21.2529V21.4018ZM52.1996 48.9358H31.5678V52.3778H52.1996V48.9358ZM52.1996 35.1678H31.5678V38.6098H52.1996V35.1678ZM52.1996 42.0518H31.5678V45.4938H52.1996V42.0518ZM21.2529 42.0518H31.5678V38.6098H21.2529V42.0518ZM21.2529 48.9358H31.5678V45.4938H21.2529V48.9358ZM52.1996 28.2858H31.5678V31.7278H52.1996V28.2858Z" fill="#ACA261"/>
<path d="M175.56 52.382V7.04163H165.578V3.59961H179V55.824H165.578V52.382H175.56Z" fill="#ACA261"/>
</svg>
